# xmcd CD database file
#
# Track frame offsets:
#	225
#	11044
#	21224
#	31152
#	42751
#	55839
#	72300
#	83298
#	96731
#	111236
#	122888
#	134021
#
# Disc length: 1946 seconds
#
# Revision: 1
# Processed by: cddbd v1.5.2PL0 Copyright (c) Steve Scherf et al.
# Submitted via: CDex 1.70beta2
#
DISCID=a207970c
DTITLE=Los Huracanes Del Norte - Mensaje De Oro
DYEAR=2001
DGENRE=Ethnic
TTITLE0=Mensaje De Oro
TTITLE1=Corazón Apasionado
TTITLE2=La Viudita
TTITLE3=Voy Al Tenampa
TTITLE4=La Ram Verde
TTITLE5=El Río Rojo
TTITLE6=Tus Recuerdos
TTITLE7=Újule
TTITLE8=Amor Ingrato
TTITLE9=El Cambio
TTITLE10=Con Piedra Y Lodo
TTITLE11=Verde Por Verde
EXTD=YEAR: 2001
EXTT0=
EXTT1=
EXTT2=
EXTT3=
EXTT4=
EXTT5=
EXTT6=
EXTT7=
EXTT8=
EXTT9=
EXTT10=
EXTT11=
PLAYORDER=
